<svg fill="none" height="399" viewBox="0 0 363 399" width="363" xmlns="http://www.w3.org/2000/svg" xmlns:xlink="http://www.w3.org/1999/xlink"><linearGradient id="a" gradientUnits="userSpaceOnUse" x1="264.38" x2="45.98" y1="53.764" y2="436.614"><stop offset=".31" stop-color="#3adee6"/><stop offset=".44" stop-color="#38d8e0"/><stop offset=".61" stop-color="#33c6ce"/><stop offset=".82" stop-color="#2ba9b0"/><stop offset="1" stop-color="#21888f"/></linearGradient><linearGradient id="b" gradientUnits="userSpaceOnUse" x1="288.51" x2="46.98" y1="362.514" y2="133.834"><stop offset=".15" stop-color="#9b7dd9"/><stop offset=".37" stop-color="#7d63b3"/><stop offset=".57" stop-color="#664f95"/><stop offset=".75" stop-color="#584283"/><stop offset=".88" stop-color="#533e7d"/></linearGradient><radialGradient id="c" cx="91.39" cy="51.4944" gradientUnits="userSpaceOnUse" r="480.67"><stop offset=".35" stop-color="#ff78c9"/><stop offset=".42" stop-color="#fd7ecb"/><stop offset=".51" stop-color="#f890d1"/><stop offset=".62" stop-color="#efaedb"/><stop offset=".66" stop-color="#ebbce0"/></radialGradient><path d="m0 267.154v-135.44c.00098748-11.233 2.95865-22.268 8.57578-31.9964 5.61712-9.7282 13.69582-17.8065 23.42422-23.4232l117.3-67.72003c9.729-5.61717 20.766-8.57437 32-8.57437s22.271 2.9572 32 8.57437l117.29 67.72003c9.728 5.6167 17.807 13.695 23.424 23.4232 5.617 9.7284 8.575 20.7634 8.576 31.9964v135.44c-.003 11.232-2.961 22.265-8.578 31.992-5.617 9.726-13.695 17.803-23.422 23.418l-117.31 67.72c-9.729 5.618-20.766 8.575-32 8.575s-22.271-2.957-32-8.575l-117.29-67.72c-9.7251-5.617-17.8008-13.694-23.41606-23.42-5.61523-9.726-8.57221125-20.759-8.57394-31.99z" fill="url(#a)"/><path d="m212.45 368.604 105-60.61c3.56-2.063 6.892-4.496 9.94-7.26l-114.11-65.82c-9.73-5.615-20.766-8.571-32-8.57v124.26c-.001 3.648.959 7.232 2.783 10.392 1.823 3.159 4.446 5.783 7.605 7.607 3.159 1.825 6.743 2.785 10.391 2.785 3.648.001 7.232-.96 10.391-2.784z" fill="url(#b)"/><path d="m327.37 300.734c6.043-5.46 10.874-12.126 14.182-19.569 3.307-7.443 5.016-15.496 5.018-23.641v-119.88c.001-3.648-.959-7.232-2.782-10.391-1.824-3.16-4.447-5.783-7.606-7.608-3.159-1.824-6.743-2.784-10.391-2.785-3.648 0-7.232.96-10.391 2.784l-115.29 66.57c-5.725 3.307-10.479 8.062-13.785 13.788-3.305 5.726-5.045 12.221-5.045 18.832v7.46c11.234-.001 22.27 2.955 32 8.57z" fill="url(#c)"/></svg>