<svg display="block" pointer-events="none" viewBox="0 0 28.57 20" xmlns="http://www.w3.org/2000/svg"><svg preserveAspectRatio="xMidYMid meet" viewBox="0 0 28.57 20" xmlns="http://www.w3.org/2000/svg"><path d="m27.9727 3.12324c-.3292-1.23001-1.2959-2.196617-2.5259-2.525874-2.2271-.59736578-11.1618-.597366-11.1618-.597366s-8.93458.00000022-11.16177.597366c-1.23.329257-2.196607 1.295864-2.525864 2.525874-.59736578 2.22718-.597366 6.87676-.597366 6.87676s.00000022 4.6496.597366 6.8768c.329257 1.23 1.295864 2.1966 2.525864 2.5258 2.22719.5974 11.16177.5974 11.16177.5974s8.9347 0 11.1618-.5974c1.23-.3292 2.1967-1.2958 2.5259-2.5258.5974-2.2272.5974-6.8768.5974-6.8768s-.0024-4.64958-.5974-6.87676z" fill="#f00"/><path d="m11.4253 14.2854 7.4224-4.285-7.4224-4.28507z" fill="#fff"/></svg></svg>