<svg viewBox="0 0 480 480" xmlns="http://www.w3.org/2000/svg"><path d="m234.95.1c80.32 0 160.64.02 240.96-.1 3.42 0 4.1.67 4.09 4.09-.11 157.27-.11 314.54 0 471.81 0 3.42-.67 4.1-4.09 4.1-61.99-.13-123.98-.1-185.96-.1-.04-2.49 2.14-2.29 3.53-2.59 22.49-4.88 38.16-18.96 50.6-37.39 2.31-3.42 4.91-6.69 6.56-10.53 3.11-7.04 8.09-13.02 11.26-20.03 4.02-6.61 7.35-13.6 11.35-20.22 1.64-2.51 3.45-4.89 5.15-7.35 6.67-9.67 16.05-13.49 27.49-13.04 4.87.69 9.28 2.5 13.24 5.41 1.22.87 2.21 2 3.42 2.88 4.73 3.48 10.85 3.46 14.68-.07 3.79-3.48 4.14-8.7.92-13.99-3.1-3.67-5.86-7.73-10.86-9.14-5.14-2.06-9.85-5.23-15.47-6.05-20.57-2.68-37.85 2.74-50.53 20.07-4.24 5.8-8.18 11.74-11.49 18.1-4.77 7.85-8.7 16.16-13.15 24.18-4.65 7.64-8.93 15.52-14.41 22.64-7.18 9.44-15.86 16.88-27.15 21.13-8.56 3.23-17.39 2.03-26.15 2.3-4.94-.72-9.84-1.63-14.57-3.29-8.51-3.54-15.75-8.64-20.47-16.8-5.02-8.03-7.29-17-8.84-26.2-.25-1.04-.38-2.1-.42-3.17.07-2.2-.09-4.37-.76-6.48-.65-3.23-.17-6.5-.44-9.74-.02-.67-.04.17-.03-.5.04-10.44.29-10.68 10.95-10.64 9.81.44 19.63.02 29.44.06 11.05.05 15.6-7.47 10.81-17.66-2.46-3.38-5.81-4.52-9.91-4.42-7.75.2-15.5-.09-23.26.11-3.29.08-6.58.07-9.87.01-7.17-.12-8.07-1.09-8.06-8.45-.1-10.03-.32-20.06.11-30.09.21-2.82 2-3.92 4.56-4.43 3.76-.75 7.59-1.06 11.35-1.8 36.43-7.22 63.05-39.53 63.06-76.58 0-12.83 0-25.65-.02-38.48-.14-2.85 0-5.7-.04-8.55-.14-2.02.08-4.03 0-6.05-.08-2.3 0-4.59.04-6.89-.09-1.98-.03-3.96.01-5.94-.07-1.67.01-3.33 0-5-.07-1.37.02-2.73.03-4.1-.04-1.35-.03-2.7 0-4.05-.05-1.34.03-2.68-.02-4.03-.04-1.34.02-2.69.02-4.03-.07-1.35 0-2.7 0-4.05-.07-1.63 0-3.26 0-4.9-.07-1.38-.03-2.75-.01-4.13-.09-1.68 0-3.36-.01-5.03-.14-1.71.01-3.43-.02-5.14-.13-3.21-.07-6.41 0-9.62-.13-2.62-.02-5.25 0-7.87-.13-1.74.02-3.48.02-5.22-.16-1.74.09-3.48-.06-5.21-.03-2.9-.02-5.8.05-8.7-.08-3.39-.07-6.78.03-10.16.01-.78 0-1.57.04-2.35.07-1.92.29-3.84-.25-5.74-.16-.44-.3-.9-.43-1.35-.52-1.82-1.06-3.63-1.32-5.51-.37-1.85-.86-3.68-.97-5.57-.19-2.09-.99-4-1.78-5.91-.94-2.84-2.32-5.48-3.78-8.08-.87-2.83-2.77-5.11-4.11-7.68-1.63-2.58-3.54-4.93-5.74-7.05-1.61-2.02-2.84-4.35-4.83-6.08-1.55-1.52-3.5-2.54-5.03-4.08-1.94-2.07-4.36-3.49-6.72-4.97-1.96-1.37-3.9-2.78-6.02-3.9-1.93-1.09-3.93-2.06-5.98-2.92-1.69-.72-3.44-1.29-5.15-1.96-2.29-.81-4.69-1.22-6.99-1.99-2.69-1.64-6.89.13-8.55-3.8z" fill="#fefefe"/><path d="m263.95 479.9h-263.95c0-159.94 0-319.87 0-479.81h191.96c.17 2.16-1.75 2.06-2.94 2.75-19.91 4.14-35.85 14.51-48.09 30.67-3.13 4.14-5.88 8.52-7.94 13.3-1.66 3.55-3.25 7.12-4.07 10.99-1.21 4.47-2.7 8.88-2.52 13.61-1.14 5.92-1.01 11.89-1.01 17.87.02 32.38.02 64.77 0 97.15 0 2.48.23 4.99-.38 7.43-1.04 2.54-3.35 2.39-5.48 2.47-4.15.14-8.3.09-12.45.05-5.56-.05-8.96 2.96-11.13 7.7-2.2 4.79.18 8.27 3.45 11.44 4.17 3.6 9.26 3.04 14.17 3.09 11.81.11 11.77.07 11.84 11.98.02 3.61-.44 7.26.46 10.83.75 2.64.15 5.43.88 8.07.49 1.68.43 3.46 1.01 5.12.38 1.35.77 2.7 1.22 4.03.53 1.71 1.07 3.42 1.68 5.1.34 1.02.63 2.06 1.05 3.05.56 1.36 1.22 2.67 1.9 3.96.63 1.3 1.22 2.62 2.06 3.8.7 1.02 1.32 2.09 1.92 3.17.57 1.08 1.27 2.08 1.97 3.08.82 1.44 1.93 2.65 3.07 3.84 1.29 1.7 2.44 3.52 4.08 4.93 1.78 1.79 3.5 3.63 5.49 5.19 12.9 10.84 27.48 17.74 44.44 19.15.83.07 1.61.37 2.35.79 2.12 1.35 2.35 3.49 2.35 5.7.03 9.96.27 19.93.09 29.89-.1 5.9-1.18 7.01-7.05 7.1-10.63.16-21.26.05-31.89.06-4.62 0-8.08 1.68-9.8 6.16-1.83 4.74-1.18 9.13 2.06 13.07 1.73 2.1 4.2 2.53 6.72 2.79 10.78.28 21.56-.31 32.34-.06 2.76.06 5.78-.35 7.5 2.7-.27 6.84 1.12 13.58 1.16 20.4.15 6.9 1.28 13.68 2.71 20.42 1.74 8.9 4.87 17.26 9.71 24.96 4.39 7.62 10.15 13.94 17.71 18.54 6.95 4.74 14.63 7.75 22.79 9.65 2.89 1.22 7.03-.36 8.58 3.84z" fill="#fefefe"/><path d="m263.95 479.9c-2.45-2.73-6.36-1.01-9.06-2.96.18-3.42 3.04-4.52 5.35-5.95 7.02-4.33 13.95-8.8 21.88-13.61-3.54-.37-6.21 0-8.83-.28-1.61-.17-3.82.57-4.32-2.07 6.14-.09 12.3.66 18.41-.42 11.99-2.12 21.43-8.58 29.43-17.44 1.66-1.84 3.31-3.69 4.96-5.54 8.31-3.22 15.18-8.9 22.79-13.31 4.03-2.34 7.89-4.97 11.89-7.36 1.88-1.12 3.91-2.88 6.38-1.03-2.87 7.12-7.74 13.14-11.1 19.99-23.6 14.85-47.29 29.55-70.93 44.34-2.55 1.6-5.05 3.19-6.87 5.64h-3c-.67-.63-1.33-.63-2 0h-5z" fill="#aa7e09"/><path d="m273.95 479.9c-.34-2.4 1.15-3.49 2.97-4.62 19.78-12.3 39.48-24.75 59.32-36.95 5-3.07 9.36-7.44 15.51-8.42-12.55 21.8-28.08 40.22-53.55 47.48-2.76.79-5.86.52-8.26 2.5h-9c-2-.82-4-.82-6 0h-1z" fill="#ac8009"/><path d="m188.91 1.93c.75-1.06 2.58-.32 3.06-1.84h8c1.52 1.14 3.39.05 4.98.77.69 3.36-2.19 4.2-4.12 5.39-17.02 10.59-33.97 21.3-51.01 31.87-3.94 2.44-7.87 4.91-11.81 7.37-1.82 1.14-3.71 2.43-5.87.59 1.86-4.78 4.49-9.11 7.81-13.01 15.58-10.35 31.67-19.89 47.45-29.91.56-.36 1.13-.67 1.51-1.23z" fill="#f9d862"/><path d="m234.95.1c2.71 2.08 6.42 1 9.17 2.92-10.71 5.62-20.65 12.47-31.98 19.45 4.06.6 6.97.26 9.85.28q4.28.3 4.61 2.79c-3.41 1.81-7.11 1-10.69 1.06-5.77.09-11.54.19-17.3-.09-1.41-.29-3.36-.16-3.58-2-.23-1.86 1.5-2.82 2.91-3.71 8.17-5.14 16.34-10.28 24.54-15.37 1.98-1.23 4.02-2.36 5.49-4.25.32-.36.65-.72.99-1.08h6z" fill="#f6d255"/><path d="m228.95.1v1c-3.75 2.54-7.96 1.25-11.99 1.44-4.02-.35-8.27 1.27-12-1.44-1.68-.25-3.6.67-5-1h28.99z" fill="#f8d969"/><path d="m274.95 479.9c2-1.53 4-1.51 6 0z" fill="#b89330"/><path d="m268.95 479.9c.67-1.21 1.33-1.11 2 0z" fill="#cfb774"/><path d="m197.55 315.07c-18-.99-33.4-7.98-46.57-20.13-.63-.72-.75-1.65-.05-2.19 6.72-5.12 13.37-10.39 21.54-13.18 1.32.29 2.52.87 3.69 1.51 19.71 10.81 40.67 10.63 61.65 5.84 23.02-5.26 39.63-27.23 39.74-50.8.02-4.81.44-9.64-.36-14.42-1.37-2.54-4.44-.69-6.13-2.36-1.02-2.35.87-3.35 2.25-4.31 8.4-5.9 17.26-11.07 25.98-16.46 1.34-.83 2.88-1.84 4.58-.55-.09 17.74 2.02 35.64-1.37 53.18-6.88 35.55-35.53 60.5-72.9 64.48-1.74.18-4.27-.83-4.64 2.29-6.17 5.33-13.39 9.06-20.34 13.19-2.25 1.34-4.21.68-4.15-2.59.06-3.31-.15-6.63.07-9.92.16-2.37-.86-3.32-2.98-3.58z" fill="#8f6a01"/><path d="m197.55 315.07c2.19-.28 3.51.35 3.43 2.88-.09 2.98-.07 5.96 0 8.94.03 1.25-.55 2.8.87 3.63 1.5.88 2.38-.6 3.48-1.2 6.64-3.6 12.4-8.74 19.62-11.35v30.99c-12.15 8.2-24.83 15.57-37.16 23.48-1.12.72-2.33 1.31-3.39 2.11-5.94 4.48-12.44 6.94-20.02 5.92-1.1-.15-2.33-.34-3.4.38-6.6-.1-10.74-4.67-10.89-12.03-.15-7.44 4.25-12.89 10.74-12.94 11.8-.1 23.6-.14 35.4.05 3.11.05 3.94-.85 3.89-3.9-.18-10.96-.13-21.93-.02-32.9.02-2.09-.34-3.54-2.54-4.04z" fill="#916b02"/><path d="m405.92 369.93c-15.43-.95-24.58 8.11-31.94 20.03-10.23 5.81-20.07 12.26-30.05 18.49-1.69 1.05-3.31 2.29-5.26 2.75-1.28.31-3.2 1.15-2.91-1.62 3.75-8.3 8.29-16.18 12.96-23.98 4.97-.85 8.6-4.23 12.69-6.73 14.63-8.94 29.08-18.19 43.7-27.16 2.42-1.48 4.54-3.36 6.87-4.96 5.91.56 10.93 3.4 15.92 6.28.42 2.78-1.92 3.56-3.56 4.72-6.01 4.25-12.73 7.45-18.42 12.19z" fill="#a67b08"/><path d="m201.08 402.95c-.64-6.75-1.1-13.49-.27-20.26 1.22 1.66 2.42 2.25 4.49.92 11.36-7.23 22.81-14.32 34.24-21.44 2.56-1.6 3.11-3.49 2.42-6.13 8.65-.07 17.3-.15 25.95-.19 3.81-.02 6.4 1.9 7.97 5.31.07 2.08-1.65 2.75-3 3.58-7.21 4.43-14.38 8.92-21.5 13.49-3.3 2.12-6.96 1.8-10.53 2.19-1.95.21-3.97-.44-5.88.42q-9.51.6-10.12 10.11c-.84 2.15-2.72 3.15-4.52 4.32-4.27 2.76-8.62 5.39-12.94 8.07-2.04 1.26-4.4 2.77-6.31-.39z" fill="#977004"/><path d="m241.97 356.05c3.27 2.05 3.48 3.79-.09 6-12.33 7.63-24.54 15.45-36.8 23.17-3 1.89-4.5 1.11-4.27-2.53-1.04-2.06-2.94-1.65-4.72-1.66-11.7-.06-23.4-.12-35.11-.19.41-.26.87-.8 1.24-.74 11.36 1.82 19.26-5.39 27.88-10.67 10.29-6.3 20.55-12.65 30.76-19.07 1.31-.83 2.51-1.56 4.1-1.41.08 1.3.31 2.61.21 3.89-.18 2.36.78 3.11 3.11 3.05 4.56-.1 9.13.08 13.69.15z" fill="#946e03"/><path d="m411.98 346.75c-.03 1.7-1.06 2.58-2.43 3.43-19.05 11.88-38.08 23.8-57.08 35.76-1.44.91-2.64 1.45-3.74-.34 9.77-18.83 21.45-35.53 44.57-39.12 6.22-.97 12.48-1.47 18.68.28z" fill="#a27907"/><path d="m268.97 455.04c4.86 2.17 10.1-.04 15.79 1.38-4.66 4.42-10.17 6.71-14.92 10.07-4.97 3.51-10.88 5.66-14.95 10.45-8.51-1.49-16.33-4.6-23.24-9.86.25-1.46 1.36-2.26 2.46-2.99 6.53-4.28 12.98-8.7 19.9-12.34 4.99 1.1 9.97 2.19 14.96 3.29z" fill="#a77d08"/><path d="m214.19 448.91c-5.11-7.61-8.26-16-10.03-24.95 8.23-3.31 15.94-7.39 21.88-14.22 1.97 9.09 4.23 18.09 8.86 26.28.12.33.23.76.03.93-5.98 5.17-12.54 9.42-19.9 12.39-.24.1-.59-.2-.84-.43z" fill="#9e7506"/><path d="m214.19 448.91c7.27-3.71 14.14-8.07 20.71-12.89 4.94 6.98 11.31 12.22 19.11 15.73-2.28 4.03-6.89 4.96-10.25 7.57-3.77 2.93-8.05 5.2-12.11 7.76-7.51-4.43-13.13-10.68-17.46-18.17z" fill="#a37907"/><path d="m303.86 89.06v9.01c-3.57 4.35-8.73 6.46-13.32 9.34-15.17 9.5-30.3 19.08-45.46 28.61-4.05.39-8.14 1.35-11.93-1.07-2.03-3.29.7-4.43 2.72-5.75 7.24-4.75 14.65-9.24 22.01-13.81 2.56-1.59 4.75-3.66 7.37-5.11 3.89-1.14 7.92-.07 11.82-.81.36-.27.7-.54 1.01-.87 1.24-2.06.09-4.65 1.48-6.67 6.3-4.24 12.85-8.09 19.3-12.09 1.45-.9 3.09-2.15 5.01-.78z" fill="#dfa70a"/><path d="m335.77 409.58c2.28 2.57 4.03-.06 5.49-.94 8.88-5.36 17.6-10.99 26.36-16.55 1.96-1.24 3.83-2.64 6.36-2.12-3.71 6.66-7.43 13.31-11.14 19.97-6.16.59-10.27 5.19-15.25 8.01-6.92 3.91-13.41 8.58-20.25 12.65-1.51.89-3.22 3.49-5.56 1.05 4.66-7.35 9.33-14.7 13.99-22.06z" fill="#a77d08"/><path d="m226.04 409.74c.05 1.94-.53 3.61-2.24 4.68-5.31 3.33-10.64 6.63-15.94 9.97-1.39.87-2.52.21-3.69-.43-1.9-6.87-2.96-13.87-3.09-21.01 1.71 1.24 3.37.97 5.05-.1 6.24-3.97 12.48-7.93 18.72-11.89.07 3.19.14 6.38.22 9.56.87 2.06-.15 4.34.75 6.39.07.94.15 1.89.22 2.83z" fill="#997105"/><path d="m405.92 369.93c1.99-5.49 7.84-6.13 11.72-9.25 3.32-2.66 7.63-4.03 10.26-7.65 5.01 1.39 8.37 4.77 10.98 9.07.02.16.12.35.06.48-1.74 4.37-15.5 12.81-20.28 12.46-3.91-2.54-8.17-4.22-12.74-5.12z" fill="#a77c08"/><path d="m303.86 176.03v7.01c-5.04 5.47-11.93 8.24-17.97 12.25-12.57 8.35-25.81 15.64-38.11 24.43-2.85.43-6.65 1.97-7.9-1.4-1.03-2.8 2.82-3.99 4.92-5.34 9.6-6.16 19.48-11.89 28.87-18.37 1.25-.74 2.76-.69 4.04-1.34 4.25-7.46 12.36-9.89 18.89-14.33 2.05-1.39 3.9-4.36 7.25-2.91z" fill="#9e7300"/><path d="m303.86 198.02c-11.67 5.89-22.94 12.41-32.92 20.97-3.79 2.47-7.88 1.28-11.89 1-2.84-1.56-1.54-3.23.02-4.69 2.08-1.94 4.71-3.11 7.1-4.62 10.54-6.66 21.08-13.32 31.74-19.79 1.79-1.09 3.52-2.65 5.94-1.86v8.99z" fill="#956d00"/><path d="m298.75 52.09c1.05 1.87 1.78 3.85 2 5.99-3.61 4.34-8.77 6.53-13.37 9.46-14.44 9.2-29.09 18.09-43.44 27.44-.65.16-1.31.28-1.97.25-1.47-.07-3.34.22-3.93-1.42-.67-1.86.98-3.06 2.27-4.01 7.1-5.22 14.84-9.46 22.24-14.22 3.07-1.98 6.15-3.93 9.14-6.03 3.61-.13 4.72-2.46 4.91-5.6 5.86-4.05 12.07-7.52 18.04-11.4 1.21-.79 2.59-1.65 4.11-.46z" fill="#e7b41e"/><path d="m234.97 380.84c.26-.2.53-.6.77-.58 11.9 1.04 20.16-6.77 29.4-12.12 3.69-2.14 7.17-4.64 10.74-6.97 3.54 4.68 2.74 9.6.54 14.42-2.17 4.74-6.31 5.64-11.18 5.51-10.09-.27-20.18-.19-30.27-.26z" fill="#9a7205"/><path d="m302.02 64.07c-.66 2.14 1.66 3.74 1.07 5.87-8.62 6.42-18.1 11.5-27.07 17.39-1.11.73-2.31 1.31-3.38 2.09-2.17 1.6-5.56 2.39-4.3 6.33-2.54.99-5.14.72-7.73.33-.65-.12-1.3-.28-1.92-.49-1.64-.55-4.2.18-4.67-2-.48-2.21 1.65-3.44 3.31-4.49 13.03-8.24 26.15-16.32 39.21-24.52 1.67-1.05 3.49-2.12 5.48-.52z" fill="#e5b018"/><path d="m302.02 64.07c-4.93-.05-7.98 3.77-11.73 5.97-11.09 6.52-21.93 13.48-32.83 20.32-1.22.76-2.52 1.61-2.77 3.28 1.66.96 3.72-.24 5.27 1.07-4.97 3.3-10.23 1.95-15.46.97-.64-.38-.81-.91-.52-1.59 18.28-13.04 37.7-24.26 56.78-36.03.42 2 .84 3.99 1.26 5.99z" fill="#e6b21b"/><path d="m268.95 94.72c-1.06-.37-2.13-.73-3.56-1.23 3.71-4.04 8.47-6.36 12.9-8.96 8.27-4.85 15.73-11.1 24.8-14.59 0 0-.06.02-.06.02.97 1.93-.17 4.14.77 6.07.01.68.02 1.36.04 2.04-4.8 4.4-10.65 7.2-16.11 10.6-4.07 2.54-7.9 4.95-6.68 10.72.2.96-.34 1.93-1.09 2.67-.5 2.62 1.09 5.53-1.08 7.93-2.06-2.44-1.38-5.4-1.36-8.15.03-3.34-.77-5.51-4.67-5.41-1.45.04-3.05-.12-3.9-1.71z" fill="#e3ae14"/><path d="m303.86 189.03c-14.97 8.35-29.14 18-43.78 26.89-1.22.74-2.1 1.57-2.13 3.07-3.33 2.06-6.66 2.06-10 0 2.03-3.82 6.08-5.04 9.4-7.12 15.45-9.7 31-19.24 46.51-28.83v6z" fill="#9a7000"/><path d="m303.86 108.07v7.98c-4.48 4.48-10.24 7.08-15.46 10.45-4.82 3.12-9.57 6.34-14.36 9.52-3.75.57-7.49.79-11.22-.15-2.89-3.64.91-4.63 2.69-5.8 8.16-5.35 16.49-10.45 24.8-15.57 2.82-1.74 5.45-3.77 8.44-5.21 1.59-.77 3.12-2 5.1-1.24z" fill="#dba204"/><path d="m303.86 136.04v4c-6.84 6.43-15.41 10.25-23.12 15.37-10.49 6.97-21.48 13.17-31.88 20.3-.62.24-1.26.45-1.93.45-1.93-.01-4.42.65-5.2-1.71-.8-2.41 1.62-3.31 3.23-4.37 9.96-6.57 20.45-12.31 30.14-19.28 1-.69 2.11-1.18 3.19-1.73.62-.35 1.26-.68 1.89-1.01 6.15-3.31 11.88-7.3 17.87-10.86 1.76-1.04 3.44-2.94 5.8-1.15z" fill="#cd9400"/><path d="m279.96 149.04c-.38.32-.75.63-1.13.95-1.89-2.22-1.28-4.93-1.25-7.44.03-2.88-.49-5.44-2.63-7.49 2.39-4.07 6.73-5.6 10.44-7.93 6.08-3.82 11.87-8.13 18.48-11.07v10c-5.57 5.29-12.57 8.46-18.9 12.63-2.67 1.75-4.11 3.68-3.76 6.85-.02 1.31-.33 2.53-1.26 3.51z" fill="#d9a001"/><path d="m245.95 135.05c.75-.86 1.35-1.98 2.28-2.56 18.52-11.51 37.08-22.96 55.63-34.42v4.98c-6.03 5.27-13.23 8.77-19.88 13.11-10.25 6.69-20.9 12.78-30.92 19.86-2.47.4-4.96.93-7.12-.96z" fill="#dda507"/><path d="m279.96 102.06c-2.17-8.37 2.47-12.54 9.3-15.75 5.04-2.37 9.12-6.54 14.58-8.24.01 3.66.02 7.33.03 10.99-6.34 1.88-11.17 6.42-16.79 9.57-2.32 1.3-4.43 2.93-7.12 3.43z" fill="#e1ab0f"/><path d="m248.96 174.9c3.42-4.51 8.76-6.37 13.26-9.31 13.1-8.57 26.49-16.69 39.79-24.96.54-.33 1.24-.4 1.86-.59v5c-4.42 4.39-10.08 6.95-15.25 10.22-11.09 7.01-22.05 14.21-33.45 20.73-2.19.36-4.41.86-6.2-1.08z" fill="#c99100"/><path d="m253.95 135.05c1.11-1.21 2.02-2.74 3.36-3.59 14.69-9.29 29.45-18.48 44.21-27.66.68-.42 1.56-.51 2.34-.75v5.01c-13.37 6.94-25.54 15.88-38.56 23.41-1.36.78-2.25 2.36-3.36 3.57-2.67 1.93-5.33 1.93-8 0z" fill="#dda406"/><path d="m220.96 24.08c-2.81 0-5.62.01-8.42-.02-.8 0-1.83.09-2.01-.93-.09-.48.36-1.31.8-1.59 9.76-6.1 19.54-12.19 29.39-18.15.88-.54 2.26-.26 3.41-.37 2.42.22 4.74.73 6.82 2.08-9.81 6.62-20.08 12.52-29.99 18.99z" fill="#f5cf51"/><path d="m418.66 375.04c7.37-3.33 14.43-7.15 20.22-12.95 4.2 5.27 4.3 9.66.33 14.63-3.22 4.03-9.08 5.48-13.92 3.35-2.59-1.14-4.84-2.79-6.62-5.04z" fill="#ab7f0a"/><path d="m290.61 36.11c1.68 2.53 3.84 4.8 4.31 7.98-6.32 5.42-12.9 10.41-21.13 12.66-2.74-1.77-4.27-4.27-4.57-7.52.89-2.8 3.5-3.81 5.67-5.17 3.75-2.35 7.39-4.89 11.29-6.99 1.34-.72 2.62-2.23 4.44-.96z" fill="#ebbb2a"/><path d="m290.61 36.11c-7.22 3.96-14.43 7.95-20.79 13.25-3.59-.6-4.54-3.54-5.65-6.35-.02-.49-.13-1.15.19-1.43 6.05-5.46 12.51-10.27 20.53-12.48 2.45 1.9 4.33 4.25 5.72 7.01z" fill="#edbe30"/><path d="m273.73 56.13c5.07-1.23 8.66-5.1 13.12-7.41 2.75-1.42 5.38-3.08 8.06-4.63 1.94 2.35 3.12 5.07 3.84 8-5.45 2.01-9.9 5.76-14.83 8.66-2.27 1.34-4.39 2.9-7.07 3.34-3.46-1.7-3.68-4.68-3.12-7.96z" fill="#e9b724"/><path d="m255.92 7.11c2.27.46 4.29 1.43 6.05 2.93.36 2.79-2.06 3.47-3.69 4.58-6.51 4.42-13.56 8.01-19.69 13.01-3.09.03-6.24.31-8.78-2.04-.92-1.67-.13-2.95 1.17-3.82 7.65-5.18 15.41-10.2 23.51-14.67.44-.24.96-.16 1.43 0z" fill="#f3cb49"/><path d="m255.96 174.9c2.26-3.56 6.39-4.58 9.62-6.7 12.06-7.94 24.52-15.28 36.84-22.81.4-.24.96-.23 1.44-.34v4c-2.38 3.68-6.51 4.99-9.94 7.23-10.24 6.67-20.75 12.92-30.89 19.76-2.47.3-5 1-7.07-1.12z" fill="#c38c00"/><path d="m255.92 7.11c-7.33 4.66-14.68 9.28-21.96 14.02-1.56 1.02-3.72 1.61-4 3.98-1.03.82-2.03.83-2.99-.13-1.8-1.62-4-.6-6-.89 2.91-5.03 8.44-6.57 12.93-9.39 5.51-3.46 10.43-8.1 17.06-9.6 1.83.25 3.54.79 4.97 2.01z" fill="#f4ce4d"/><path d="m284.89 29.1c-6.09 3.72-12.17 7.45-18.27 11.15-1.1.67-1.64 1.61-1.68 2.87-3.8-.31-5.47-2.89-6.56-6.1.18-1.46 1.17-2.31 2.3-3.04 5.28-3.38 10.64-6.64 15.9-10.05.95-.62 1.97-1.27 3.22-.78 2.2 1.55 4.02 3.42 5.08 5.94z" fill="#eec136"/><path d="m268.11 13.71c2.65 1.37 5.1 2.99 7.03 5.3-6.93 5.56-14.94 9.47-22.24 14.47-2.72-.07-4.87-1.21-6.47-3.4-.68-1.82-.04-3.34 1.47-4.28 6.66-4.16 12.96-8.92 20.21-12.09z" fill="#f1c740"/><path d="m268.11 13.71c-4.9 4.66-11.1 7.38-16.61 11.13-1.92 1.31-4.76 1.86-4.54 5.09-3.32.76-6.09.07-8-2.96 2.94-5.44 9.12-6.54 13.52-10.05 3.05-2.42 6.91-3.77 9.49-6.88 2.37.69 4.33 2.06 6.14 3.67z" fill="#f2c944"/><path d="m252.95 33.09c6.47-6.16 14.18-10.35 22.2-14.07 1.76 1.15 3.53 2.28 4.66 4.14-6.06 3.87-12.11 7.76-18.2 11.58-1.13.71-2.31 1.26-2.76 2.63-3.23.32-5.18-1.12-5.9-4.28z" fill="#f0c43b"/><path d="m303.86 176.03c-7.55 4.64-15.05 9.36-22.67 13.88-2.07 1.23-.19 4.1-2.51 4.99-1.28-1.69-1.01-3.57-.7-5.46.59-1.72.61-3.58 1.27-5.28 6.67-5.99 14.49-10.21 22.32-14.43.75-.41 1.6-.33 2.3.31v6z" fill="#a77800"/><path d="m263.95 174.9c3.36-4.54 8.62-6.49 13.13-9.4 8.8-5.68 17.84-10.99 26.77-16.46v4.01c-.69 1.38-1.74 2.4-3.05 3.18-10.62 6.42-21.02 13.19-31.58 19.71-1.9.37-3.79.67-5.28-1.05z" fill="#bf8900"/><path d="m279.95 184.02c-.22 1.67.56 3.51-.83 4.99-2.89-3.29-1.01-7.34-1.76-10.96-.09-1.69-1.81-1.98-2.64-3.04-.17-2.27 1.52-3.11 3.09-4.07 7.09-4.32 14.13-8.72 21.12-13.2 1.53-.98 3.03-2.27 4.93-.71v4c-5.6 5.33-12.7 8.43-19 12.71-2.24 1.52-3.95 3-3.61 5.93 0 1.58-.42 3.03-1.3 4.35z" fill="#b68300"/><path d="m279.95 145.04c-.43-3.31.65-5.36 3.88-7.11 6.82-3.68 12.91-8.65 20.03-11.88v5c-6.52 5.68-14.16 9.62-21.54 13.98-.71.42-1.58.47-2.37.01z" fill="#d59c00"/><path d="m303.86 157.03c-4.08-.13-6.29 3.35-9.28 5.14-6.67 4.01-13.7 7.54-19.63 12.72-1.67 1.6-3.33 1.6-5 0 4.21-4.55 9.97-6.85 15-10.19 6.17-4.09 12.59-7.79 18.91-11.65z" fill="#ba8600"/><path d="m279.95 145.04c8.36-4 15.41-10.23 23.91-13.99v5c-4.77.67-7.9 4.38-11.92 6.43-4.06 2.07-7.44 5.37-11.98 6.56 0-1.33 0-2.67 0-4z" fill="#d19800"/><path d="m279.96 179.03c.02-1.81-.32-3.75 1.72-4.84 7.59-4.05 14.28-9.64 22.19-13.16v4.01c-5.27 6.18-12.95 8.87-19.4 13.34-1.29.9-2.8 1.95-4.51.64z" fill="#b17f00"/><path d="m279.96 179.03c6.78-2.42 12.22-7.15 18.37-10.66 1.87-1.07 3.69-2.21 5.53-3.32v4.98c-8.66 3.48-15.74 9.68-23.91 13.99 0-1.66 0-3.33 0-4.99z" fill="#ac7c00"/><path d="m225.82 406.91c-1.6-1.97-.63-4.24-.75-6.39.97 2.04.79 4.22.75 6.39z" fill="#9e7506"/><path d="m303.8 76.03c-1.57-1.86-.64-4.03-.77-6.07 1.22 1.9.8 4.01.77 6.07z" fill="#e5b018"/><path d="m97.91 216.2c-3.22-3.53-5.8-7.09-3.56-12.36 2.4-5.62 6.17-8.93 12.44-8.95 5.65-.02 11.31-.01 16.96-.02 1.56-2.62.35-5.5.76-8.22.48-1.87 2.22-2.36 3.59-3.21 14.99-9.22 29.81-18.74 44.83-27.91 2.7-1.65 5.02-3.81 7.77-5.38 3.42-.74 6.84-.8 10.26 0 2.89 2.89-.27 4.05-1.8 5.08-6.29 4.22-12.81 8.12-19.24 12.13-1.68 1.05-3.29 2.22-5.04 3.13-2.57 1.35-4.19 3.23-4.42 6.18-1.35.69-2.86.85-4.28.66-4.07-.55-6.09 1.26-6.46 5.2-4.05 4.06-9.3 6.36-14.07 9.33-11.03 6.87-21.92 13.96-33.04 20.67-1.74 1.05-2.93 2.72-4.7 3.67z" fill="#e2ac11"/><path d="m216.96 1.1h12c-.24 3.11-3.1 3.7-5.06 4.94-8.65 5.5-17.46 10.76-26.12 16.24-.64.4-4.38 1.15-.62 2.9-.36 2.28-2.38 2.02-3.86 2.39-12.12 2.95-22.51 8.7-30.37 18.59-.94 1.18-2.07 2.15-3.45 2.79-11.44 5.91-22.35 12.68-32.66 20.4-.54.4-.99.85-1.72.69.2-4.49 1.06-8.83 2.87-12.96 12.48-8.54 25.53-16.19 38.31-24.26 16.85-10.64 33.82-21.1 50.69-31.72z" fill="#f7d45a"/><path d="m216.96 1.1c-3.52 5.64-9.87 7.51-15.02 10.83-20.59 13.26-41.45 26.12-62.33 38.94-3.73 2.29-6.96 5.66-11.65 6.21.6-3.96 2.18-7.55 4.17-10.99 4.53.52 7.28-3.01 10.55-5.01 19.66-12.06 39.14-24.42 58.7-36.64 1.44-.9 2.83-1.75 3.58-3.34h12z" fill="#f8d65e"/><path d="m97.91 216.2c.3-3.79 3.75-4.32 6.17-5.85 13.72-8.68 27.47-17.33 41.25-25.93 1.09-.68 2.45-.95 3.68-1.41 2.27 3.13 1.35 6.57 1 9.95-.62 2.12-2.44 3.05-4.15 4.07-9.71 5.81-19.18 12.02-28.85 17.9-.95.58-2.19.91-2.51 2.31 3.57 1.69 8.1-1.25 11.24 2.36.95 2.42.62 4.95.65 7.45.12 3.17.05 6.35-.02 9.52.08 1.47 0 2.93-.45 4.35-.22.57-.59 1.01-1.1 1.35-1.41-6.2-.5-12.49-.57-18.74-.03-2.85-.9-3.71-3.69-3.59-4.46.2-8.93.06-13.39.04-3.58-.02-6.88-.79-9.25-3.78z" fill="#dfa80b"/><path d="m125.09 70.03c1.57-3.9 5.44-5.05 8.55-7.06 6.81-4.4 13.67-8.71 20.57-12.96 1.52-.94 3.1-1.99 5.06-1.84-1.6 6.22-4.15 12-7.94 17.21-2.1-.34-3.82.48-5.53 1.61-3.85 2.55-7.63 5.35-11.79 7.26-6.57 3.03-9.01 7.72-7.67 14.65.05 2.43.06 4.85.03 7.28.11 2.29.06 4.57.01 6.86.14 2.33-.04 4.66.03 6.99.14 2.35-.09 4.69 0 7.04.1 2.94-.03 5.88-.02 8.82.11 2.34 0 4.67-.03 7.01.11 2.03.03 4.05 0 6.08.13 2.3-.02 4.6.02 6.91.13 1.72-.1 3.45.01 5.17.08 2.02-.02 4.04-.03 6.06.13 2.61.04 5.23 0 7.84.13 2.34.03 4.67 0 7.01.14 2.07 0 4.13 0 6.2.02 2.7.48 5.47-1.34 7.86-.74 2.9 1.2 6.2-1.3 8.85.09-14.82.22-29.64.26-44.46.06-22.32.09-44.64.08-66.96 0-4.51.11-8.98 1-13.41z" fill="#f6d154"/><path d="m188.91 1.93c-.67 3.5-4.04 4.22-6.38 5.73-12.12 7.79-24.41 15.32-36.68 22.88-1.82 1.12-3.65 2.34-5.9 2.53 12.21-16.83 28.41-27.4 48.96-31.14z" fill="#fada66"/><path d="m171.61 279.99c-5.67 3.72-11.38 7.39-16.98 11.21-1.41.97-3.46 1.51-3.65 3.74-2.05-1.25-3.7-2.9-5.05-4.87-.88-1.16-.59-2.42.4-3.08 6.54-4.35 12.5-9.75 20.45-11.66 2.01 1.13 5.11 1.15 4.83 4.66z" fill="#946c01"/><path d="m166.72 275.99c-7.07 2.89-12.99 7.73-19.55 11.5-.94.54-1.16 1.56-1.24 2.58-1.67-1.35-3.09-2.92-4.09-4.83-.31-.67-.25-1.38.32-1.78 6.57-4.65 12.86-9.78 20.72-12.26 2.24.82 4.46 1.67 3.83 4.79z" fill="#997001"/><path d="m163 271.98c-7.56 3.61-14.61 8.04-21.16 13.26-1.37-1.06-2.42-2.36-2.99-4.01-.59-1.45.48-2.19 1.39-2.77 5.78-3.72 11.52-7.52 17.55-10.84.59-.32 1.27-.28 1.93-.19 1.9.93 3.6 2.02 3.29 4.55z" fill="#9e7301"/><path d="m128 258.99c-.81-1.17-1.18-2.46-1.07-3.88-1.07-1.92.35-2.75 1.63-3.52 5.41-3.28 10.73-6.72 16.16-9.96 2.99-1.78 5.02-1.45 5.9 2.2.14.77.07 1.52-.26 2.24-6.25 4.92-13.41 8.45-20.01 12.85-.69.46-1.56.54-2.36.09z" fill="#c48d00"/><path d="m132.84 271.05c-1.09-1.13-1.71-2.49-1.89-4.05 5.54-5.52 12.56-8.81 19.23-12.63.85-.49 1.94-.29 2.89.13 1.75 1.31 2.88 2.9 2.29 5.23-5.75 2.14-10.62 5.84-15.82 8.95-2.04 1.22-3.87 3.26-6.69 2.36z" fill="#b18001"/><path d="m152.79 255c-5.43.48-8.76 4.93-13.33 7.07-2.96 1.39-5.69 3.27-8.52 4.93-.88-.71-1.09-1.68-1.1-2.74-.43-.87-.15-1.82.44-2.28 6.38-4.94 12.58-10.21 20.67-12.27 1.53 1.44 2.78 2.98 1.84 5.28z" fill="#b88401"/><path d="m124.82 242.26c.11-.42.23-.85.34-1.27 6.23-4.97 13.22-8.75 20.01-12.85 1.25-.76 2.75-1.3 4.17-.11.74 1.16.75 2.37.28 3.62-4.89 4.84-11.18 7.62-16.85 11.31-2.7 1.76-5.18 3.56-6.32 6.71-.19.14-.39.28-.58.43-1.22-2.49-1.06-5.17-1.05-7.83z" fill="#d29800"/><path d="m150.93 250c-7.23 4.46-15.25 7.76-21.09 14.27-1.15-1.57-1.74-3.34-1.84-5.28 7.39-4.23 14.07-9.69 22.01-12.99 1.17 1.13 1.66 2.43.92 4z" fill="#be8801"/><path d="m132.84 271.05c5.59-3.39 11.2-6.75 16.76-10.18 1.69-1.04 3.26-2.34 5.33-.86 1.63-.29 1.5.8 1.43 1.83-6.56 5.35-13.52 10.04-21.42 13.21-1.07-1.14-2.12-2.29-2.11-4z" fill="#ac7c01"/><path d="m149.85 244c-.99-2.18-1.86-3.14-4.51-1.33-5.68 3.86-11.74 7.14-17.59 10.74-.45.28-.55 1.12-.81 1.7-1.06-1.52-1.09-3.26-1.07-5.01 0 0 .22-.21.22-.21 5.81-4.88 12.49-8.44 19-12.22 1.35-.78 2.91-1.73 4.56-.39 1.48 2.2 2.28 4.42.2 6.72z" fill="#c99203"/><path d="m134.95 275.05c6.69-4.86 13.66-9.26 21.01-13.05 2.26-.11 2.3 1.43 2.27 3.03-6.6 5.23-13.59 9.84-21.37 13.17-.97-.85-1.67-1.87-1.92-3.15z" fill="#a77901"/><path d="m136.86 278.2c6.56-5.06 13.68-9.23 20.92-13.2 1.54.42 2.82 1.01 1.93 3-7.19 4.04-14.34 8.14-20.86 13.23-1.05-.76-1.73-1.75-1.99-3.03z" fill="#a37601"/><path d="m151.07 65.28c2.44-5.85 4.7-11.78 8.2-17.12 9.67-12.54 22.43-19.97 37.88-22.99 9.94-.07 19.87-.13 29.81-.2 1 .04 1.99.09 2.99.13 2.8 1.61 6.08.89 9 1.87 2.67.99 5.33 1.98 8 2.96 2 1.05 3.99 2.1 5.99 3.15 1.97 1.43 3.93 2.85 5.9 4.28 2.03 1.92 4.06 3.84 6.09 5.76 1.63 2.08 3.26 4.16 4.88 6.23 1.3 2.26 2.61 4.51 3.91 6.77 1.04 2.65 2.08 5.31 3.12 7.96 1.65 4.69-.15 6.52-4.89 5.93-2.74 1.9-5.85 1.58-8.92 1.48-3.3 0-6.6.18-9.89 0-3.42.03-6.85.08-10.26 0-2.13-.13-4.26-.16-6.4-.12-7.79.14-12.15 4.96-11.79 12.99.38 1.57.96 3.06 1.93 4.37 1.59 2.42 3.85 3.82 6.65 4.42 3.52.84 7.04 1.67 10.69 1.55h15.99 9q9.97.69 9.95 10.81c0 1.49-.02 2.98-.03 4.46 0 0 .05-.03.05-.03-12.02 1.16-24.07 1.64-36.15 1.56-1.66-.01-3.33-.05-4.98.19-7.08 1.03-10.46 5.64-10.22 13.92.58 3.55 3.36 5.68 5.38 8.3 4.16 2.34 8.62 1.18 12.99 1.12h8 8 13c3.02-.19 4.33.99 4.04 4.24-.32 3.54-.13 7.13-.16 10.7-.95.31-1.91.62-2.86.93-2.07 1.62-4.51 1.64-6.96 1.59-2.4-.19-4.8.16-7.19 0-5.29-.03-10.58.13-15.87 0-2.12-.15-4.25-.14-6.39-.13-7.97.05-11.21 2.94-12.27 10.92-.4 3.91 1.37 6.75 4.44 8.95 1.3.9 2.76 1.41 4.29 1.75 11.75 2.84 23.69 1.01 35.53 1.55 2.45.11 4.95-.51 7.35.44.08 4.34.15 8.68.23 13.02-.15 1.96-.29 3.92-.44 5.89-1.58.06-3.16.12-4.73.19-2.09 1.49-4.47 1.45-6.87 1.34-2.33-.07-4.67.17-7 0-2.02-.08-4.04.15-6.06 0-2.01 0-4.03.09-6.04.05-2.02-.15-4.04.09-6.05 0-2.32-.13-4.64.1-6.95 0-2.33-.16-4.66.1-6.99 0-2.33-.21-4.67.1-7 0-2.61-.22-5.23.15-7.84-.05-2.3 0-4.59.07-6.89.03-1.42-.12-2.85 0-4.28-.04-1.44-.04-2.88-.01-4.31-.02-2.36 0-4.72.21-7.08.06-5.21.02-10.41.24-15.61 0-4.97.08-9.95.18-14.92.07-2.3-.2-4.62.26-6.9-.09-1.65-.26-3.84.19-4.17-2.42 0-3.66.02-7.33.02-10.99.04-.16.09-.32.1-.48q.4-6.72 7.33-6.76c1.46-.01 2.91-.17 4.36-.27 2.55-1.48 5.34-.9 8.06-.94 4.09-.12 8.18-.06 12.27.04 2.78-.06 5.57.15 8.36.02 8.94-.4 12.96-4.57 13.1-13.57.12-2.79-1.41-4.72-3.39-6.4-2.03-1.98-5.41-1.36-7.21-3.76-4.01 0-8.01 0-12.02.01-3.97 2.75-8.45 1.35-12.73 1.56-3.34-.02-6.69.18-10.04-.02-2.43-.07-4.9.3-7.21-.82-2.67-1.9-2.38-4.75-2.42-7.5-.03-2.41-.21-4.84.47-7.21 1.12-2.74 3.47-3.23 6.05-3.32 3.28.02 6.57-.19 9.85 0 3.76 0 7.52-.15 11.28 0 5.27.15 10.54.15 15.82.05 9.28-.18 13.7-6.41 10.89-15.19-.51-2.86-2.83-4.1-4.95-5.52-1.1-.78-2.43-.88-3.66-1.3-12.62-.47-25.24-.06-37.85-.2-7.18-.08-7.91-.83-7.93-8.07-.1-2.55-.29-5.11.7-7.56 1.77-2.65 4.55-2.23 7.12-2.24 2.46 0 4.91.1 7.37 0 3.35-.21 6.69.09 10.04 0 4.02-.14 8.04.08 12.05.08 6.51.33 12.32-.72 15.12-7.68 1.69-3.34.18-6.28-1.2-9.22-1.77-3.93-4.98-5.38-9.09-5.33-3.96.12-7.92.14-11.87.09-3.94-.06-7.87.18-11.8.03-4.65-.31-9.35.67-13.96-.61-2.37-1.55-2.71-3.44-.93-5.67z" fill="#fefefe"/><path d="m159.72 267.99c-.19-1.29-1.07-2.14-1.93-3-.61-1-1.22-2-1.82-3-.34-.66-.69-1.33-1.03-1.99-.71-1.67-1.42-3.33-2.14-5-.62-1.67-1.24-3.33-1.86-5-.72-1.24-1.09-2.56-.92-4-.05-.67-.11-1.33-.16-2-.26-2.34-.52-4.68-.79-7.01-1.51-1.65-1.39-3.31-.05-4.98 0-1.33 0-2.67 0-4-1.46-1.6-1.51-3.53-1.28-5.52.84-4.38 4.35-4.03 7.45-3.98 9.48.17 18.96.07 28.44.04 3.48.04 6.95.1 10.43.05 6.33.02 12.65.01 18.98 0 8.36.09 16.71-.12 25.07.11 2.03.87 4.16.85 6.32.84 9.9-.03 19.8-.04 29.7.02 1.59 0 3.31-.57 4.77.6-.14 7.64.67 15.32-.57 22.93-4.42 27.13-25.03 45.9-52.57 47.29-10.28.52-20.65.88-30.91-.75-8.48-1.35-15.98-5.21-23.22-9.64-1.07-2.01-3.37-2.53-4.89-4-.74-1.8-2.25-2.89-3.72-4.02-1.1-1.33-2.19-2.65-3.29-3.98z" fill="#fefefe"/><path d="m278.88 220.16c-13.67-.12-27.34-.24-41-.36-1.6-.71-3.38.09-4.98-.59-.51-2.8 1.76-3.61 3.48-4.75 10.04-6.69 20.51-12.72 30.58-19.37h7c-2.34 3.85-6.62 5.13-10.1 7.42-7.8 5.14-15.79 10-24.38 15.41 3.35 1.66 5.98.88 8.49 1.07h10 13c2.62.56 5.58-1.15 7.94 1.17z" fill="#a37601"/><path d="m232.96 133.94c-3.17-1.16-5.28-3.29-6.11-6.61-.99-3.1 1.16-4.59 3.23-5.93 4.98-3.23 10.12-6.22 14.97-9.65 1.4-.99 3.01-1.27 4.71-1.17 5.06.3 10.17-.61 15.21.53-5.81 6.53-14.18 9.35-20.96 14.46-3.69 2.78-8.7 3.84-11.04 8.38z" fill="#e1ab0f"/><path d="m264.96 111.09c-14.57-3.28-25 5.35-35.93 12.52-1.3.85-2.11 2.09-2.19 3.71-4.28-9.43 4.35-17.41 12.24-17.27 13.27.24 26.55-.04 39.83-.1-4.49 2.35-9.32.52-13.96 1.13z" fill="#e3ae14"/><path d="m262.95 70.02h9.01c-1.49 2.83-4.39 3.89-6.88 5.46-7.81 4.94-15.66 9.83-23.47 14.78-1.22.78-2.5 1.61-2.9 3.29 1.7 1.02 3.55.23 5.27.55v.61c-4.03.11-8.1.99-12.02-.72-3.08-3.61.74-4.67 2.53-5.84 8.17-5.36 16.54-10.41 24.82-15.61 1.25-.79 2.68-1.34 3.66-2.53z" fill="#e8b520"/><path d="m268.97 150.92c2.33-.4 4.67-.41 7 0-.73 1.84-2.36 2.68-3.92 3.66-8.7 5.45-17.39 10.93-26.06 16.44-1.31.83-3.89 1.02-3.41 2.98.49 1.98 2.86.76 4.39 1 .64.1 1.32-.05 1.99-.09h7 8 6 5c1.32.34 2.94-.39 3.94 1.1-12.71-.07-25.41-.14-38.11-.2-2.31-.01-4.64.16-6.78-.98-.12-2.76 2.28-3.47 3.97-4.53 10.32-6.48 20.57-13.06 31-19.37z" fill="#d29800"/><path d="m166.97 150.92h13c-.73 3.23-3.81 4.02-6.05 5.45-14.99 9.51-30.09 18.84-45.19 28.18-1.1.68-2.44.99-3.66 1.47 0-2.67 0-5.33 0-8 6.74-5.64 14.67-9.45 21.94-14.29 6.58-4.38 13.56-8.14 19.96-12.82z" fill="#e4ae14"/><path d="m191.98 150.91c2.96.38 6 .55 8.2 3.02-.56 2.21-2.58 2.86-4.2 3.96-8.92 6-18.55 10.93-27.02 17.63-2.72.45-5.44.42-8.16 0-3.06-.83-2.96-1.88-.39-3.48 8.28-5.15 16.51-10.38 24.74-15.63 2.48-1.58 5.41-2.61 6.84-5.51z" fill="#e0a90d"/><path d="m183.89 219.79c-10.2.06-20.4.17-30.61.15-2.32 0-4.35-.07-4.28 3.06-6.52 5.34-13.95 9.29-21.1 13.67-.83.51-1.81.81-2.82.3 0-3.32 0-6.64 0-9.96 6.67-5.85 14.66-9.69 22.03-14.47 9.2-5.95 18.54-11.69 27.85-17.46h15.99c.36 3.04-2.24 3.85-4.04 5.03-8.74 5.74-17.74 11.09-27.02 17.02 1.65 1.02 3.09.45 4.39.58 1.01-.02 2.01-.06 3.01-.06 1.34.03 2.67-.08 4-.04 2.52.07 5.03-.11 7.55-.04 1.82.42 4.24-.51 5.05 2.21z" fill="#d9a001"/><path d="m174.97 195.08c-2.24 4.29-6.83 5.5-10.49 7.86-11.84 7.64-23.79 15.1-35.74 22.58-1.1.69-2.43 1-3.65 1.49-.04-2.67-.07-5.34-.11-8.01-.34-2.18 1.55-2.75 2.8-3.59 10.56-7.05 21.46-13.55 32.18-20.34h15.01z" fill="#dba204"/><path d="m159.96 195.08c-1.87 3.14-5.11 4.57-8 6.46-8.97 5.85-18.48 10.88-26.98 17.47-3.47 0-6.94.04-10.41-.03-1.07-.02-2.6.53-3.01-.93-.4-1.42 1.11-1.81 2.05-2.38 11.8-7.21 23.19-15.1 35.39-21.66 3.51 1.92 7.37.18 10.98 1.07z" fill="#dda507"/><path d="m125.09 236.97c6.35-3.9 12.72-7.76 19.02-11.72 1.55-.98 2.99-2.1 4.9-2.25v5c-6.38 1.77-11.16 6.37-16.78 9.5-2.31 1.29-4.42 2.91-7.07 3.5-.02-1.34-.05-2.68-.07-4.02z" fill="#d69c00"/><path d="m162.86 94.73c-4.56 1.05-9.43-1.11-13.87 1.32-7.54 5.42-14.61 11.64-23.94 13.99 0-2.32 0-4.64 0-6.97 12.15-8.19 24.78-15.61 37.15-23.46 5.19-3.3 10.37-6.64 15.77-9.59 4.33.03 8.65.05 12.98.08.39 2.78-1.9 3.67-3.6 4.79-7.8 5.12-15.76 9.97-23.7 14.88-1.83 1.13-3.64 2.31-5.2 3.98-.54.15.5.62.09.1 1.74-1.17 3.27-1.31 4.31.89z" fill="#f1c740"/><path d="m177.97 70.02c-.72 1.59-2.09 2.46-3.52 3.35-15.4 9.58-30.77 19.18-46.12 28.83-1.06.66-2.11.86-3.28.87 0-2.33 0-4.67 0-7 4.99-4.42 10.98-7.31 16.53-10.87 8.06-5.17 16.13-10.34 24.4-15.18h12z" fill="#f2c944"/><path d="m153.97 135.05c-1.68.6-4.11-.66-4.98 1.99-6.44 5.49-13.92 9.39-21.09 13.76-.83.5-1.85.75-2.84.21 0-1.67 0-3.33 0-5 .74-1.57 2.04-2.59 3.48-3.47 14.07-8.58 27.9-17.55 41.99-26.09 3.12-1.89 5.57-4.81 9.19-5.88 2.55 0 5.09-.04 7.63.02 2.64 3.07-.58 3.98-2.14 4.96-10.4 6.53-20.74 13.15-31.25 19.5z" fill="#eab927"/><path d="m178.97 111.08c-.91 1.63-2.23 2.88-3.79 3.86-16.7 10.37-33.41 20.72-50.12 31.08 0-2.32 0-4.65 0-6.97 8.36-6.33 17.56-11.37 26.4-16.95 6.16-3.89 12.09-8.17 18.59-11.53 2.97.29 6-.59 8.92.52z" fill="#ebbb2a"/><path d="m165.98 70.02c-3.79 4.89-9.49 7.13-14.52 10.23-8.73 5.38-16.92 11.69-26.41 15.81 0-2.66 0-5.33 0-7.99 5.52-5.27 12.55-8.3 18.76-12.55 2.7-1.85 5.51-3.55 8.18-5.47 4.67 0 9.34-.02 14.01-.03z" fill="#f3cb49"/><path d="m178.97 111.08c-3.33 0-6.66 0-10 0-2.8 2.01-6.01 1.28-9.09 1.4-6.53-.92-12.26.65-17.56 4.76-3.62 2.81-7.71 5.09-11.73 7.35-1.67.94-3.37 2.2-5.54 1.44 0-3 0-6 0-9 1.83-3.49 5.63-4.43 8.53-6.52 3.35-2.42 7.02-4.32 10.48-6.58 1.45-.95 3-2.28 4.94-.89q.44 7.08 7.78 7.07c11.06-.01 22.12-.04 33.18-.01 1.78 0 3.65-.41 5.27.79-2.37 2.16-4.8 1.86-7.27.18h-9z" fill="#efc237"/><path d="m151.97 70.05c-.05 1.03-.32 2-1.26 2.55-8.63 5.04-16.63 11.13-25.67 15.48-1.65-7.6 1.98-11.88 8.61-15.02 4.75-2.25 8.93-5.68 13.46-8.42 1.26-.76 3.21-2.95 3.96.65.28 1.59-1.17 3.51.9 4.77z" fill="#f4ce4e"/><path d="m158.98 111.08h10c-2.43 4.55-7.37 5.83-11.24 8.42-8.93 5.95-18.1 11.55-27.24 17.2-1.66 1.03-3.61 1.58-5.43 2.35 0-2 0-4 0-6 6.69-5.56 14.55-9.34 21.72-14.17 4-2.7 8.24-5.03 12.19-7.8z" fill="#ecbd2e"/><path d="m166.97 150.92c-.16 3.75-3.78 3.91-5.93 5.32-10.8 7.04-21.79 13.79-32.74 20.59-.96.59-2.15.81-3.23 1.2 0-2 0-4 0-6 5.87-5.51 13.27-8.75 19.84-13.22 3.97-2.71 8.29-4.88 12.07-7.88h10z" fill="#e5b018"/><path d="m158.98 111.08c-.31 3.65-3.85 3.9-6.03 5.22-9.26 5.63-17.89 12.34-27.88 16.75 0-2.34 0-4.67 0-7.01 6.02-2.75 11.66-6.24 16.91-10.15 5.23-3.9 10.66-5.59 17.01-4.81z" fill="#edbf32"/><path d="m156.97 150.92c-.16 3.73-3.74 3.93-5.89 5.27-8.6 5.38-16.84 11.38-26.01 15.83 0-2.33 0-4.66 0-6.99 6.56-5.53 14.3-9.26 21.41-13.96 1.15-.76 2.48-.82 3.76-.14h6.73z" fill="#e6b21b"/><path d="m150.24 150.93c-7.61 2.84-13.68 8.31-20.73 12.12-1.44.78-2.74 1.81-4.44 1.99 0-2.67 0-5.33 0-8 6.14-5.36 13.38-9.02 20.27-13.21 1.19-.72 2.5-.86 3.67.21.7 2.25-.62 4.85 1.23 6.89z" fill="#e8b51f"/><path d="m149 103.05c-7.51 2.85-13.51 8.28-20.51 11.99-1.17.62-2.3 1.33-3.44 1.99 0-2.33 0-4.67 0-7 8.29-4.13 15.47-10.17 23.94-13.99v7z" fill="#f0c53d"/><path d="m149.01 144.04c-6.5 1.28-10.96 6.3-16.63 9.11-2.47 1.22-4.36 3.54-7.31 3.9 0-2.01 0-4.02 0-6.02 8.35-4.03 15.38-10.3 23.93-13.97 0 2.33.01 4.66.02 7z" fill="#e9b824"/><path d="m149.01 232c.02 1.66.03 3.32.05 4.98-6.47 2.86-12.15 7.06-18.16 10.71-1.54.93-2.89 2.17-4.82 2.19-.33-2.09-.08-4.08 1.88-5.23 7.05-4.16 13.58-9.18 21.04-12.65z" fill="#cd9501"/><path d="m162.86 94.73c-1.47-1.41-3.58 0-5.49-1.42 4.33-4.82 10.34-7.04 15.37-10.61 6.02-4.27 13.11-6.99 18.21-12.6 4.11.28 7.25 1.99 8.86 5.97-7.55 5.02-15.41 9.57-22.99 14.53-1.61 1.05-3.64 1.79-3.95 4.12-3.34 0-6.68 0-10.01 0z" fill="#efc43a"/><path d="m244.95 150.92c5.67-.41 11.35-.44 17.02 0 .56 2.82-1.76 3.58-3.46 4.67-9.17 5.86-18.53 11.41-27.56 17.47-3.18-2.17-5.5-4.82-4.96-9.03 3.96-4.63 9.85-6.44 14.54-10.02 1.43-1.09 3.26-1.61 4.43-3.09z" fill="#d9a001"/><path d="m202.8 117.06c4.25 10.13-1.18 18.18-12.36 18.21-4.82.02-9.65-.14-14.47-.22-1.25-1.85.23-2.81 1.38-3.63 7.3-5.21 15.06-9.72 22.69-14.42.86-.53 1.86-.76 2.76.05z" fill="#e6b21b"/><path d="m202.8 117.06c-8.89 4.78-17.3 10.32-25.67 15.94-.77.52-1.08 1.2-1.17 2.06-4 0-8 0-12 0-1.32-2.16.52-3.07 1.77-3.91 9.89-6.66 20.28-12.53 30.14-19.23.59-.4 1.24-.36 1.8.15 1.84 1.53 4.67 2.04 5.12 4.99z" fill="#e8b520"/><path d="m197.68 112.07c-9.89 6.32-19.8 12.6-29.65 18.98-1.59 1.03-3.75 1.62-4.06 4-3.33 0-6.67 0-10 0 3.06-4.67 8.33-6.35 12.67-9.25 6.03-4.04 12.36-7.64 18.49-11.55 1.17-.74 2.82-1.29 2.84-3.17 2.42-.06 4.85-.12 7.27-.18.95.11 2.02-.05 2.44 1.17z" fill="#e9b723"/><path d="m168.96 175.51c-.21-2.26 1.38-3.04 3.01-4.04 9.44-5.79 18.81-11.69 28.21-17.55 2.19 1.45 3.5 3.45 3.75 6.1-6.13 4-12.45 7.7-18.6 11.67-1.47.95-3.49 1.49-3.51 3.82-4.29.46-8.57.44-12.86 0z" fill="#dfa80b"/><path d="m262.95 70.02c-1.95 4.7-6.88 5.68-10.53 8.18-5.82 4-12.05 7.39-17.99 11.23-1.46.94-3.82 1.89-2.48 4.56-2.79-.55-4.88-2.04-6.16-4.61-.33-3.1 2.49-3.61 4.23-4.76 7.57-5 15.47-9.47 22.94-14.61h10z" fill="#e9b724"/><path d="m181.82 175.52c-.66-.58-2.14-1.13-.66-2.13 7.32-4.9 14.15-10.66 22.77-13.36.39 11.57-3.66 15.78-15.23 15.75-2.29 0-4.59-.17-6.88-.26z" fill="#dda507"/><path d="m172.88 94.72c-.84-.73-2.12-1.46-.47-2.56 8.48-5.61 16.92-11.29 25.94-16.01.4-.21.97-.07 1.47-.09 1.68 3.24 3.51 6.47 1.22 10.18-1.29-1.41-2.58-2.44-4.6-1.03-3.37 2.34-6.83 4.57-10.45 6.49-2.29 1.22 0 2.04-.13 3.01h-12.98z" fill="#eec135"/><path d="m183.89 219.79c-1.47-1.35-3.28-.56-4.93-.8-.17-3.67 3.07-4.43 5.28-5.83 9.56-6.04 19.23-11.92 28.71-18.08h7.99c-.55 4.14-4.33 5.19-7.09 6.94-7.99 5.08-16.08 10.02-24.12 15.17.72 1.17 1.86.39 2.65.8.47.1.91.29 1.32.54.28.23.41.5.39.79-.02.31-.07.46-.14.46-3.35 0-6.71 0-10.06 0z" fill="#c99100"/><path d="m193.96 219.02c-.33-.01-.66-.02-.99-.03-.59-2.11 1.01-3.08 2.33-3.92 10.78-6.82 21.26-14.15 32.64-19.99h7c.5 1.59-.51 2.61-1.59 3.31-11.2 7.29-22.27 14.79-34.09 21.09-1.77-.19-3.61.49-5.31-.46z" fill="#bf8900"/><path d="m212.96 195.08c-2.05 4.67-7.02 5.63-10.69 8.16-6.54 4.49-13.4 8.5-20.16 12.67-1.3.8-2.46 1.68-3.14 3.08-2.66 0-5.33 0-8 0-.3-3.16 2.6-3.52 4.35-4.67 10.06-6.65 20.3-13.01 30.63-19.23h7.01z" fill="#cd9400"/><path d="m252.95 70.02c-1.94 4.69-6.91 5.58-10.48 8.18-5.41 3.94-11.7 6.58-16.69 11.18-1.3-1.09-1.95-2.48-1.88-4.18-1.35-2.92.62-4.1 2.69-5.37 5.18-3.17 10.51-6.11 15.36-9.81z" fill="#eab927"/><path d="m266.95 195.08c-3.51 5.64-9.95 7.26-14.97 10.82-5.5 3.9-11.43 7.2-17.12 10.85-.79.51-1.28 1.48-1.91 2.24-2.3 1.04-4.73.26-7.08.49-2.39-2.5.37-3.21 1.63-4.03 7.78-5.08 15.71-9.94 23.6-14.86 2.95-1.84 5.85-3.76 8.86-5.51h7z" fill="#a87900"/><path d="m163.97 218.99c-2.1-.18-4.28.49-7.09-.84 5.17-4.43 11-7.1 16.16-10.7 5.95-4.15 12.92-6.82 17.91-12.36h7.01c1.24 3.37-1.88 3.86-3.56 4.92-10.12 6.37-20.21 12.78-30.43 18.98z" fill="#d59c00"/><path d="m199.96 218.99c7.64-6.65 16.87-10.88 25.14-16.57 3.37-2.32 7.36-3.82 9.84-7.34h7c.51 2.04-.88 3.24-2.24 4.03-11.29 6.61-21.81 14.49-33.54 20.37-2.06-.23-4.2.54-6.2-.5z" fill="#b98500"/><path d="m230.94 173.06c2-4.72 6.97-5.7 10.65-8.23 5.73-3.94 11.81-7.36 17.75-11.01 1.16-.71 2.11-1.62 2.63-2.91 2.33-.4 4.66-.41 6.99 0-4.81 5.69-11.78 8.31-17.71 12.41-5.68 3.94-12.07 6.8-17.26 11.48-1.22-.23-2.32-.67-3.06-1.75z" fill="#d59c00"/><path d="m227.95 195.08c-7.68 6.6-16.89 10.86-25.17 16.54-3.37 2.31-7.39 3.78-9.8 7.36-2.06 0-4.12 0-7.27 0 6.17-5.21 12.32-8.22 17.93-12.03 5.79-3.94 12.36-6.73 17.32-11.88h7z" fill="#c38d01"/><path d="m247.94 195.08h6.01c1.36 2.36-.56 3.42-1.99 4.29-10.85 6.6-21.4 13.69-32.4 20.07-2 .05-4 .12-5.99-.04-1.75-2.73.89-3.48 2.26-4.34 10.7-6.67 21.26-13.56 32.11-19.98z" fill="#b07f00"/><path d="m247.94 195.08c-5.71 6.47-13.93 9.3-20.7 14.25-4.64 3.39-10.19 5.43-14.27 9.65-.22.15-.43.29-.65.44-1.79-.11-3.64.55-5.36-.44 2.66-4.15 7.53-5.25 11.26-7.91 6.31-4.5 13.24-8.13 19.89-12.15 1.59-.96 2.9-2.22 3.83-3.84z" fill="#b58200"/><path d="m219.96 218.99c3.12-4.54 8.44-6 12.7-8.93 6.32-4.35 13.01-8.15 19.56-12.17 1.08-.66 1.69-1.54 1.74-2.81h6c-3.9 5.63-10.55 7.44-15.79 11.22-6.22 4.49-13.25 7.77-19.21 12.68-1.67.78-3.33.78-5 0z" fill="#ac7c00"/><path d="m185.86 94.72c-1.04-.38-2.09-.77-3.73-1.37 5.18-4.25 10.64-7.49 16.25-10.35 3.85-1.96 1.98 1.96 2.67 3.25-2.6 6.8-6.65 9.07-15.18 8.47z" fill="#edbf32"/><path d="m244.95 150.92c-.15 3.73-3.77 3.8-5.88 5.28-4.16 2.9-8.7 5.25-13.08 7.83-.21-7.88 4.38-13.02 12.02-13.34 2.31-.09 4.63.14 6.94.23z" fill="#dba204"/><path d="m241.95 70.02c-.18 3.14-3.08 3.67-5.01 4.96-3.56 2.39-7.3 4.51-11.06 6.58-1.57.86-2.01 2.05-1.97 3.64-1.9-7.15 2.56-14.27 9.72-15.17 2.73-.34 5.55-.03 8.33-.02z" fill="#ebbc2c"/><path d="m205.95 195.08c-4.58 5.47-11.29 7.93-16.94 11.88-5.92 4.14-12.62 7.12-18.04 12.03-1.33 0-2.67 0-4 0-.61-1.94.85-2.67 2.09-3.43 11.02-6.72 21.88-13.72 32.88-20.47h4z" fill="#d19800"/><path d="m201.95 195.08c-4.03 4.84-10.03 6.84-14.96 10.4-6.53 4.72-14.23 7.69-20.02 13.51-1 0-2 0-3 0 2.87-4.86 8.32-6.22 12.58-9.15 6-4.13 12.39-7.68 18.54-11.59 1.17-.74 2.84-1.28 2.87-3.16h3.99z" fill="#d29900"/><path d="m219.96 218.99h5 7.99c1.65.25 3.46-.56 4.93.8-8.31 0-16.62 0-24.93 0-.32-.17-.42-.34-.32-.51s.21-.26.31-.26c0 0 .03-.04.03-.04h6.99z" fill="#b98500"/><path d="m212.94 219.03c.01.26.01.51 0 .77-6.33 0-12.66 0-18.99 0 0-.26 0-.51 0-.77l6-.03h7c1.99.01 3.99.02 5.98.04z" fill="#c38d01"/></svg>